<svg xmlns="http://www.w3.org/2000/svg" xmlns:xlink="http://www.w3.org/1999/xlink" width="200" zoomAndPan="magnify" viewBox="0 0 150 30.000001" height="40" preserveAspectRatio="xMidYMid meet" version="1.0"><defs><clipPath id="id1"><path d="M 52 2.027344 L 68 2.027344 L 68 26.703125 L 52 26.703125 Z M 52 2.027344 " clip-rule="nonzero"/></clipPath><clipPath id="id2"><path d="M 97 2.027344 L 112 2.027344 L 112 26.703125 L 97 26.703125 Z M 97 2.027344 " clip-rule="nonzero"/></clipPath><clipPath id="id3"><path d="M 81 2.027344 L 97 2.027344 L 97 26.703125 L 81 26.703125 Z M 81 2.027344 " clip-rule="nonzero"/></clipPath><clipPath id="id4"><path d="M 38 2.027344 L 52 2.027344 L 52 26.703125 L 38 26.703125 Z M 38 2.027344 " clip-rule="nonzero"/></clipPath><clipPath id="id5"><path d="M 110 2.027344 L 128 2.027344 L 128 26.703125 L 110 26.703125 Z M 110 2.027344 " clip-rule="nonzero"/></clipPath><clipPath id="id6"><path d="M 23.570312 2.027344 L 39 2.027344 L 39 26.703125 L 23.570312 26.703125 Z M 23.570312 2.027344 " clip-rule="nonzero"/></clipPath><clipPath id="id7"><path d="M 127.714844 2.371094 L 144.601562 2.371094 L 144.601562 26.320312 L 127.714844 26.320312 Z M 127.714844 2.371094 " clip-rule="nonzero"/></clipPath><clipPath id="id8"><path d="M 67 2.027344 L 81 2.027344 L 81 26.703125 L 67 26.703125 Z M 67 2.027344 " clip-rule="nonzero"/></clipPath><clipPath id="id9"><path d="M 4.289062 0 L 22.433594 0 L 22.433594 29.03125 L 4.289062 29.03125 Z M 4.289062 0 " clip-rule="nonzero"/></clipPath></defs><g clip-path="url(#id1)"><path fill="#000000" d="M 57.773438 10.125 C 57.785156 10.335938 57.796875 10.535156 57.8125 10.726562 C 57.851562 11.214844 57.902344 11.707031 57.921875 12.199219 C 57.9375 12.640625 58.050781 12.738281 58.480469 12.789062 C 58.949219 12.847656 59.402344 12.773438 59.824219 12.542969 C 60.554688 12.144531 61.171875 11.601562 61.617188 10.894531 C 62.308594 9.785156 62.386719 8.574219 61.964844 7.351562 C 61.644531 6.421875 60.664062 5.769531 59.8125 5.886719 C 57.792969 6.164062 57.679688 8.4375 57.773438 10.125 Z M 52.820312 15.484375 C 52.855469 15.121094 53.199219 14.894531 53.40625 14.625 C 53.710938 14.222656 53.859375 13.675781 53.859375 13.179688 C 53.851562 11.160156 53.855469 9.140625 53.824219 7.121094 C 53.804688 5.953125 53.5 4.867188 52.792969 3.914062 C 52.46875 3.472656 52.609375 3.144531 53.164062 3.097656 C 54.054688 3.019531 54.859375 3.300781 55.59375 3.804688 C 55.792969 3.941406 55.976562 4.101562 56.191406 4.269531 C 56.417969 4.113281 56.621094 3.949219 56.847656 3.816406 C 58.527344 2.839844 60.328125 2.496094 62.207031 3.003906 C 64.183594 3.539062 65.585938 4.898438 65.894531 7.105469 C 66.109375 8.652344 65.753906 10.042969 65.058594 11.375 C 64.417969 12.605469 63.515625 13.613281 62.359375 14.371094 C 62.285156 14.417969 62.21875 14.476562 62.148438 14.53125 C 62.132812 14.542969 62.128906 14.566406 62.097656 14.628906 C 62.210938 14.710938 62.320312 14.8125 62.445312 14.882812 C 63.667969 15.535156 64.484375 16.558594 65.082031 17.800781 C 65.816406 19.324219 66.09375 20.945312 66.207031 22.613281 C 66.226562 22.902344 66.234375 23.195312 66.257812 23.484375 C 66.3125 24.140625 66.652344 24.558594 67.273438 24.746094 C 67.507812 24.816406 67.824219 24.921875 67.808594 25.222656 C 67.785156 25.570312 67.371094 25.800781 67.082031 25.894531 C 66.25 26.171875 65.429688 26.113281 64.648438 25.6875 C 64.472656 25.59375 64.3125 25.476562 64.191406 25.398438 C 63.597656 25.609375 63.050781 25.828125 62.488281 26.003906 C 62.078125 26.128906 61.65625 26.09375 61.253906 25.933594 C 60.972656 25.824219 60.648438 25.589844 60.738281 25.246094 C 60.816406 24.949219 61.207031 24.851562 61.453125 24.726562 C 62.117188 24.386719 62.433594 23.8125 62.402344 23.085938 C 62.367188 22.28125 62.351562 21.453125 62.152344 20.683594 C 61.898438 19.714844 61.539062 18.757812 61.089844 17.867188 C 60.566406 16.820312 59.703125 16.078125 58.582031 15.691406 C 58.4375 15.640625 58.285156 15.609375 58.132812 15.585938 C 58.074219 15.574219 58.007812 15.605469 57.917969 15.621094 C 57.894531 15.699219 57.851562 15.78125 57.851562 15.863281 C 57.925781 20.628906 57.878906 21.019531 58.21875 23.109375 C 58.285156 23.523438 58.433594 23.933594 58.601562 24.320312 C 58.8125 24.796875 59.117188 25.207031 59.613281 25.429688 C 60.25 25.714844 59.53125 26.257812 59.167969 26.328125 C 58.113281 26.539062 57.148438 26.386719 56.40625 25.5 C 56.378906 25.464844 56.335938 25.449219 56.257812 25.394531 C 56.109375 25.488281 55.945312 25.589844 55.78125 25.691406 C 54.976562 26.175781 54.109375 26.375 53.179688 26.265625 C 52.953125 26.242188 52.515625 26.152344 52.445312 25.890625 C 52.371094 25.621094 52.738281 25.429688 52.90625 25.285156 C 53.164062 25.058594 53.417969 24.832031 53.589844 24.53125 C 53.84375 24.089844 53.953125 23.585938 53.957031 23.082031 C 53.972656 21.511719 54 19.941406 53.9375 18.371094 C 53.914062 17.832031 53.832031 17.285156 53.617188 16.785156 C 53.457031 16.410156 53.085938 16.164062 52.890625 15.8125 C 52.828125 15.695312 52.808594 15.589844 52.820312 15.484375 " fill-opacity="1" fill-rule="nonzero"/></g><g clip-path="url(#id2)"><path fill="#000000" d="M 110.824219 21.15625 C 110.28125 23.480469 108.621094 25.550781 106.058594 26.027344 C 104.976562 26.226562 103.90625 26.289062 102.855469 25.902344 C 101.023438 25.222656 99.726562 23.945312 99.070312 22.007812 C 98.542969 20.445312 98.3125 18.816406 98.199219 17.171875 C 98.175781 16.847656 98.140625 16.523438 98.113281 16.199219 C 98.070312 15.753906 97.933594 15.351562 97.667969 14.988281 C 97.414062 14.652344 97.40625 14.566406 97.667969 14.265625 C 98.054688 13.824219 98.144531 13.308594 98.191406 12.738281 C 98.332031 11.050781 98.503906 9.371094 98.671875 7.6875 C 98.6875 7.503906 98.75 7.328125 98.785156 7.144531 C 99.296875 4.5 100.882812 3.007812 103.339844 2.445312 C 104.902344 2.089844 106.675781 2.261719 108.03125 3.195312 C 109.773438 4.394531 110.234375 6.449219 110.355469 8.421875 C 110.390625 8.984375 110.429688 9.539062 110.960938 9.882812 C 111.128906 9.992188 111.164062 10.175781 111.109375 10.375 C 111.039062 10.632812 110.859375 10.757812 110.621094 10.777344 C 109.886719 10.839844 109.222656 10.640625 108.652344 10.140625 C 108.523438 10.027344 108.433594 9.855469 108.304688 9.679688 C 108.054688 9.898438 107.878906 10.070312 107.6875 10.214844 C 107.09375 10.65625 106.464844 10.964844 105.710938 10.71875 C 105.425781 10.625 105.175781 10.484375 105.140625 10.046875 C 105.238281 9.933594 105.351562 9.761719 105.5 9.632812 C 106.265625 8.945312 106.339844 7.898438 105.847656 7.019531 C 105.203125 5.867188 103.699219 6.71875 103.246094 7.589844 C 102.820312 8.40625 102.726562 9.308594 102.660156 10.210938 C 102.601562 10.972656 102.628906 11.738281 102.609375 12.503906 C 102.59375 13.105469 102.71875 13.660156 103.082031 14.132812 C 103.332031 14.449219 103.339844 14.753906 103.125 15.082031 C 102.714844 15.703125 102.640625 16.40625 102.644531 17.140625 C 102.652344 18.046875 102.667969 18.949219 102.910156 19.828125 C 103.082031 20.460938 103.339844 21.046875 103.808594 21.503906 C 104.554688 22.230469 105.605469 22.21875 106.359375 21.515625 C 106.808594 21.09375 107.082031 20.511719 107.214844 19.914062 C 107.25 19.757812 107.464844 18.253906 107.15625 18.253906 C 106.953125 18.253906 106.734375 18.230469 106.523438 18.261719 C 106.015625 18.332031 105.777344 18.625 105.808594 19.152344 C 105.824219 19.433594 105.890625 19.722656 105.582031 19.875 C 105.1875 20.074219 104.453125 19.542969 104.375 18.300781 C 104.328125 17.472656 104.558594 16.746094 105.109375 16.117188 C 105.019531 15.96875 104.9375 15.835938 104.859375 15.699219 C 104.375 14.84375 104.492188 14.011719 104.96875 13.207031 C 105.058594 13.054688 105.199219 12.917969 105.34375 12.824219 C 105.695312 12.59375 105.980469 12.734375 106.070312 13.160156 C 106.109375 13.367188 106.136719 13.574219 106.195312 13.773438 C 106.378906 14.402344 106.761719 14.808594 107.40625 14.894531 C 108.105469 14.992188 109.957031 15.140625 110.449219 15.25 C 110.9375 15.359375 111.203125 15.699219 111.257812 16.21875 C 111.269531 16.308594 111.28125 16.402344 111.285156 16.492188 C 111.375 17.890625 111.191406 19.582031 110.824219 21.15625 " fill-opacity="1" fill-rule="nonzero"/></g><g clip-path="url(#id3)"><path fill="#000000" d="M 85.109375 3.546875 C 85.300781 3.550781 85.480469 3.441406 85.648438 3.347656 C 86.328125 2.980469 87.132812 2.835938 87.902344 2.945312 C 88.28125 2.996094 88.730469 3.203125 88.734375 3.582031 C 88.738281 3.957031 88.316406 4.164062 88.019531 4.398438 C 87.324219 4.941406 87.308594 5.941406 87.21875 6.8125 C 87.074219 8.171875 86.964844 9.539062 86.886719 10.90625 C 86.816406 12.132812 86.78125 13.40625 87.242188 14.546875 C 87.3125 14.722656 87.398438 14.902344 87.402344 15.09375 C 87.40625 15.300781 87.320312 15.496094 87.242188 15.6875 C 86.566406 17.320312 86.382812 19.320312 86.9375 21.019531 C 87.339844 22.25 88.703125 23.140625 90.011719 22.378906 C 90.507812 22.085938 90.8125 21.628906 90.921875 21.074219 C 91.257812 19.363281 91.355469 17.585938 90.804688 15.910156 C 90.714844 15.632812 90.605469 15.359375 90.589844 15.070312 C 90.570312 14.742188 90.664062 14.417969 90.746094 14.097656 C 91.296875 11.945312 91.277344 9.695312 91.253906 7.476562 C 91.238281 6.230469 91.121094 4.785156 90.082031 4.078125 C 89.8125 3.898438 89.449219 3.699219 89.480469 3.378906 C 89.515625 3.082031 89.871094 2.945312 90.171875 2.910156 C 91.316406 2.773438 92.519531 3.191406 93.320312 4.007812 C 93.964844 3.175781 95.089844 2.734375 96.136719 2.898438 C 96.566406 2.96875 97.070312 3.300781 96.9375 3.710938 C 96.859375 3.957031 96.582031 4.078125 96.363281 4.214844 C 95.355469 4.847656 95.191406 6.203125 95.125 7.375 C 95 9.664062 94.878906 11.992188 95.417969 14.21875 C 95.503906 14.585938 95.613281 14.964844 95.542969 15.335938 C 95.5 15.566406 95.390625 15.777344 95.304688 15.996094 C 94.613281 17.710938 95.242188 19.660156 94.980469 21.488281 C 94.515625 24.703125 91.359375 26.703125 88.214844 26.445312 C 86.136719 26.273438 84.128906 24.980469 83.359375 23.066406 C 82.390625 20.65625 83.414062 17.738281 82.210938 15.429688 C 82.136719 15.285156 82.050781 15.132812 82.058594 14.96875 C 82.074219 14.746094 82.261719 14.578125 82.402344 14.402344 C 82.847656 13.851562 82.886719 13.089844 82.90625 12.382812 L 83.054688 7.339844 C 83.085938 6.214844 82.890625 4.859375 81.957031 4.214844 C 81.710938 4.042969 81.394531 3.902344 81.324219 3.613281 C 81.230469 3.234375 81.644531 2.921875 82.019531 2.804688 C 82.859375 2.546875 83.820312 2.71875 84.519531 3.246094 C 84.691406 3.375 84.863281 3.53125 85.078125 3.546875 L 85.109375 3.546875 " fill-opacity="1" fill-rule="nonzero"/></g><g clip-path="url(#id4)"><path fill="#000000" d="M 42.941406 17.730469 C 42.882812 18.617188 43.078125 19.554688 43.410156 20.253906 C 43.675781 20.808594 44.265625 21.464844 44.941406 21.117188 C 45.527344 20.8125 45.8125 20.0625 45.988281 19.472656 C 46.230469 18.667969 46.40625 17.859375 46.382812 17.011719 C 46.371094 16.644531 46.25 16.261719 46.113281 15.914062 C 45.917969 15.414062 45.890625 15.375 46.320312 15.003906 C 46.730469 14.648438 46.933594 14.203125 47.015625 13.667969 C 47.257812 12.085938 47.074219 10.527344 46.730469 8.980469 C 46.640625 8.578125 46.445312 8.230469 46.152344 7.941406 C 45.667969 7.460938 45.097656 7.421875 44.636719 7.925781 C 44.34375 8.25 44.078125 8.636719 43.925781 9.042969 C 43.386719 10.464844 43.152344 11.949219 43.207031 13.472656 C 43.226562 14.035156 43.328125 14.582031 43.699219 15.050781 C 43.953125 15.375 43.949219 15.503906 43.660156 15.820312 C 43.207031 16.320312 42.988281 17.007812 42.941406 17.730469 Z M 44.628906 26.445312 C 43.269531 26.496094 42.355469 25.707031 41.664062 24.628906 C 40.957031 23.535156 40.417969 22.347656 40.148438 21.050781 C 39.894531 19.839844 39.621094 18.632812 39.34375 17.429688 C 39.253906 17.035156 39.160156 16.632812 38.992188 16.269531 C 38.644531 15.503906 37.882812 15.121094 38.347656 14.675781 C 40.207031 12.902344 39.792969 10.566406 40.71875 6.671875 C 40.960938 5.660156 41.4375 4.734375 42.066406 3.90625 C 43.128906 2.507812 45.304688 2.027344 46.859375 2.8125 C 49.828125 4.3125 50.355469 7.496094 50.484375 10.835938 C 50.515625 11.578125 50.59375 12.316406 50.671875 13.054688 C 50.742188 13.746094 51.027344 14.34375 51.472656 14.875 C 51.882812 15.355469 51.886719 15.464844 51.398438 15.855469 C 50.449219 16.617188 50.105469 17.710938 49.785156 18.816406 C 49.40625 20.132812 49.117188 21.476562 48.714844 22.785156 C 48.34375 23.980469 47.757812 25.0625 46.6875 25.789062 C 46.066406 26.210938 45.40625 26.492188 44.628906 26.445312 " fill-opacity="1" fill-rule="nonzero"/></g><g clip-path="url(#id5)"><path fill="#000000" d="M 117.914062 15.015625 C 118.535156 15.039062 119.019531 15.082031 119.566406 14.90625 L 118.933594 11.027344 L 118.796875 11.027344 C 118.40625 12.308594 118.332031 13.65625 117.914062 15.015625 Z M 123.191406 25.488281 C 123.101562 25.433594 121.523438 26.316406 121.226562 26.382812 C 120.84375 26.464844 120.003906 26.496094 119.816406 26.046875 C 119.628906 25.589844 120.628906 24.90625 120.832031 24.488281 C 121.125 23.890625 121.1875 23.214844 121.148438 22.558594 C 121.078125 21.285156 119.96875 16.699219 119.921875 16.527344 C 119.226562 16.367188 118.554688 16.421875 117.816406 16.566406 C 117.722656 17.046875 117.605469 17.523438 117.539062 18.007812 C 117.335938 19.433594 117.164062 20.863281 116.953125 22.289062 C 116.800781 23.328125 117.207031 24.128906 117.871094 24.84375 C 118.035156 25.023438 118.234375 25.203125 118.34375 25.421875 C 118.488281 25.714844 118.410156 25.996094 118.101562 26.128906 C 117.898438 26.214844 117.664062 26.265625 117.441406 26.269531 C 116.523438 26.277344 115.683594 26.054688 115.011719 25.347656 C 114.898438 25.234375 114.773438 25.128906 114.628906 24.996094 C 114.472656 25.152344 114.332031 25.304688 114.179688 25.441406 C 113.507812 26.058594 112.730469 26.429688 111.828125 26.414062 C 111.503906 26.40625 111.164062 26.269531 110.867188 26.121094 C 110.316406 25.84375 110.832031 25.289062 111.132812 25.058594 C 111.804688 24.546875 112.273438 23.925781 112.523438 23.125 C 113.09375 21.277344 113.550781 19.402344 113.753906 17.464844 C 113.808594 16.949219 113.71875 16.480469 113.421875 16.050781 C 113.277344 15.847656 113.085938 15.648438 113.21875 15.3125 C 113.265625 15.277344 113.332031 15.214844 113.410156 15.171875 C 113.984375 14.847656 114.320312 14.332031 114.492188 13.691406 C 115.023438 11.683594 115.492188 9.664062 115.800781 7.605469 C 115.882812 7.042969 115.996094 6.488281 116.074219 5.925781 C 116.121094 5.601562 116.136719 5.269531 116.148438 4.9375 C 116.175781 4.339844 115.648438 4.027344 115.304688 3.605469 C 114.882812 3.09375 115.398438 2.558594 115.9375 2.488281 C 116.746094 2.382812 117.75 2.640625 118.457031 3.121094 C 118.683594 3.273438 118.921875 3.402344 119.144531 3.539062 C 120.269531 2.738281 120.734375 2.175781 122.414062 2.402344 C 122.582031 2.425781 122.753906 2.542969 122.882812 2.664062 C 123.066406 2.835938 123.050781 3.109375 122.882812 3.300781 C 122.855469 3.332031 122.816406 3.367188 122.777344 3.386719 C 121.878906 3.886719 121.894531 4.734375 122.007812 5.609375 C 122.089844 6.265625 122.195312 6.921875 122.28125 7.578125 C 122.527344 9.476562 122.875 11.355469 123.316406 13.21875 C 123.359375 13.402344 123.417969 13.582031 123.46875 13.761719 C 123.621094 14.277344 123.875 14.695312 124.351562 14.96875 C 124.785156 15.21875 124.847656 15.503906 124.523438 15.890625 C 124.132812 16.363281 124.046875 16.882812 124.085938 17.472656 C 124.207031 19.34375 125.023438 21.304688 125.417969 23.125 C 125.574219 23.847656 126.089844 24.285156 126.722656 24.574219 C 127.292969 24.835938 127.355469 25.167969 126.921875 25.628906 C 126.65625 25.910156 126.320312 26.066406 125.957031 26.117188 C 125.082031 26.25 124.230469 26.214844 123.46875 25.65625 C 123.378906 25.589844 123.277344 25.539062 123.191406 25.488281 " fill-opacity="1" fill-rule="nonzero"/></g><g clip-path="url(#id6)"><path fill="#000000" d="M 29.398438 11.078125 C 29.429688 11.671875 29.507812 12.25 29.601562 12.753906 C 29.625 12.886719 29.652344 13.019531 29.683594 13.152344 C 29.78125 13.574219 30.058594 13.8125 30.535156 13.816406 C 31.144531 13.820312 31.730469 13.730469 32.269531 13.464844 C 33.148438 13.03125 33.855469 12.375 34.109375 11.425781 C 34.445312 10.171875 34.273438 8.90625 33.78125 7.714844 C 33.355469 6.671875 32.375 6.359375 31.320312 6.800781 C 29.648438 7.503906 29.316406 9.367188 29.398438 11.078125 Z M 27.71875 4.828125 C 28.859375 3.453125 30.398438 3.015625 32.042969 2.933594 C 33.855469 2.84375 35.449219 3.386719 36.589844 4.875 C 37.089844 5.527344 37.339844 6.300781 37.585938 7.070312 C 38.0625 8.554688 38.164062 10.089844 37.925781 11.601562 C 37.625 13.492188 36.640625 15 34.945312 16.03125 C 33.578125 16.859375 32.125 17.355469 30.511719 17.378906 C 30.339844 17.378906 30.164062 17.402344 29.953125 17.417969 C 29.917969 17.625 29.871094 17.808594 29.847656 18 C 29.695312 19.285156 29.691406 20.570312 29.941406 21.839844 C 30.1875 23.078125 30.585938 24.238281 31.710938 25.019531 C 32.222656 25.378906 31.824219 25.839844 31.363281 25.945312 C 30.632812 26.105469 29.945312 25.890625 29.3125 25.542969 C 29.191406 25.480469 28.046875 24.765625 27.984375 24.820312 C 27.847656 24.949219 27.710938 25.082031 27.566406 25.203125 C 26.765625 25.898438 25.84375 26.25 24.773438 26.164062 C 24.601562 26.152344 24.417969 26.121094 24.265625 26.042969 C 23.820312 25.816406 23.75 25.46875 24.066406 25.082031 C 24.214844 24.894531 24.386719 24.722656 24.570312 24.566406 C 25.324219 23.917969 25.746094 23.105469 25.824219 22.125 C 25.917969 20.996094 26.007812 19.867188 26.054688 18.734375 C 26.074219 18.261719 26.007812 17.78125 25.949219 17.304688 C 25.882812 16.785156 25.660156 16.347656 25.152344 16.097656 C 25.132812 16.089844 25.113281 16.078125 25.097656 16.066406 C 24.441406 15.632812 24.425781 15.402344 25.0625 14.976562 C 25.617188 14.605469 25.941406 14.117188 25.9375 13.453125 C 25.898438 9.019531 25.917969 8.726562 25.515625 6.683594 C 25.34375 5.796875 25.050781 4.949219 24.253906 4.386719 C 24.183594 4.335938 24.121094 4.273438 24.066406 4.203125 C 23.78125 3.8125 23.949219 3.398438 24.425781 3.332031 C 24.554688 3.316406 24.691406 3.335938 24.820312 3.355469 C 25.738281 3.492188 26.558594 3.835938 27.265625 4.4375 C 27.398438 4.550781 27.53125 4.664062 27.71875 4.828125 " fill-opacity="1" fill-rule="nonzero"/></g><g clip-path="url(#id7)"><path fill="#000000" d="M 141.125 18.027344 C 141.792969 17.53125 142.632812 17.285156 143.371094 17.269531 C 143.691406 17.265625 144.03125 17.339844 144.332031 17.464844 C 144.671875 17.605469 144.6875 17.929688 144.398438 18.1875 C 144.28125 18.292969 144.152344 18.394531 144.015625 18.464844 C 143.425781 18.777344 143.152344 19.332031 143.023438 19.992188 C 142.921875 20.53125 142.863281 21.082031 142.765625 21.621094 C 142.597656 22.5625 142.335938 23.503906 141.746094 24.273438 C 140.804688 25.503906 139.394531 26.101562 137.960938 26.242188 C 136.328125 26.402344 133.9375 26.070312 132.550781 25.121094 C 132.460938 25.058594 132.367188 24.996094 132.269531 24.933594 C 132.253906 24.921875 132.230469 24.921875 132.289062 24.9375 C 132.132812 24.902344 131.585938 25.289062 131.421875 25.371094 C 131.09375 25.53125 130.761719 25.6875 130.417969 25.808594 C 129.84375 26.007812 128.917969 26.257812 128.382812 25.863281 C 127.910156 25.511719 128.304688 25.144531 128.628906 24.933594 C 129.441406 24.402344 129.535156 23.433594 129.628906 22.558594 C 129.789062 21.105469 129.796875 18.988281 129.8125 17.53125 C 129.820312 17.035156 129.726562 16.527344 129.625 16.039062 C 129.535156 15.597656 129.363281 15.1875 129.035156 14.859375 C 128.738281 14.566406 128.75 14.332031 128.964844 13.96875 C 128.976562 13.949219 128.988281 13.925781 129.003906 13.910156 C 129.640625 13.320312 129.710938 12.578125 129.703125 11.761719 C 129.6875 9.984375 129.777344 8.796875 129.707031 7.023438 C 129.65625 5.691406 129.027344 4.671875 128.121094 3.824219 C 128.085938 3.792969 128.046875 3.773438 128.011719 3.742188 C 127.601562 3.386719 127.621094 2.921875 128.140625 2.695312 C 129.21875 2.214844 130.367188 2.796875 131.371094 3.179688 C 131.464844 3.214844 132.289062 3.617188 132.320312 3.59375 C 132.460938 3.492188 132.621094 3.371094 132.785156 3.253906 C 133.523438 2.742188 134.335938 2.460938 135.207031 2.40625 C 135.445312 2.394531 135.6875 2.4375 135.921875 2.488281 C 136.144531 2.539062 136.328125 2.671875 136.382812 2.945312 C 136.4375 3.234375 136.289062 3.398438 136.101562 3.539062 C 135.070312 4.316406 134.230469 5.726562 134.1875 7.152344 C 134.148438 8.613281 134.113281 9.75 134.109375 11.214844 C 134.105469 12.296875 134.34375 13.300781 135.0625 14.121094 C 135.34375 14.4375 135.324219 14.59375 135.058594 14.925781 C 134.945312 15.070312 134.800781 15.1875 134.6875 15.332031 C 134.46875 15.605469 134.265625 15.898438 134.261719 16.28125 C 134.234375 17.910156 134.191406 19.667969 134.445312 21.285156 C 134.59375 22.238281 135.085938 22.917969 135.957031 23.195312 C 137.082031 23.550781 138.5 23 138.984375 21.792969 C 139.300781 21 139.242188 20.375 139.0625 19.53125 C 138.773438 18.15625 137.378906 18.019531 137.625 17.457031 C 137.761719 17.136719 138.429688 17.152344 138.75 17.136719 C 139.589844 17.097656 140.460938 17.347656 141.125 18.027344 " fill-opacity="1" fill-rule="nonzero"/></g><g clip-path="url(#id8)"><path fill="#000000" d="M 71.886719 6.378906 C 70.59375 6.484375 69.347656 6.929688 68.691406 8.003906 C 68.609375 8.136719 68.542969 8.28125 68.457031 8.414062 C 68.296875 8.660156 68.074219 8.792969 67.78125 8.730469 C 67.519531 8.671875 67.445312 8.441406 67.398438 8.21875 C 67.175781 7.21875 67.167969 6.234375 67.714844 5.320312 C 67.761719 5.242188 67.792969 5.160156 67.824219 5.089844 C 67.542969 4.628906 66.964844 3.972656 67.105469 3.398438 C 67.199219 3.003906 67.691406 3.285156 67.917969 3.375 C 68.441406 3.578125 68.921875 3.484375 69.425781 3.285156 C 69.875 3.109375 70.605469 2.941406 71.078125 2.871094 C 71.960938 2.738281 72.785156 2.988281 73.550781 3.445312 C 73.722656 3.550781 73.882812 3.667969 74.082031 3.800781 C 74.222656 3.71875 74.375 3.632812 74.523438 3.546875 C 75.761719 2.832031 77.054688 2.636719 78.402344 3.175781 C 79.191406 3.492188 79.8125 3.136719 80.484375 2.859375 C 80.816406 2.941406 80.84375 3.1875 80.800781 3.449219 C 80.71875 3.910156 80.511719 4.304688 80.160156 4.613281 C 80.027344 4.726562 79.894531 4.835938 79.804688 4.910156 C 80.007812 5.640625 80.21875 6.308594 80.367188 6.988281 C 80.441406 7.339844 80.429688 7.714844 80.421875 8.078125 C 80.417969 8.25 80.359375 8.4375 80.28125 8.59375 C 80.109375 8.925781 79.855469 8.988281 79.574219 8.753906 C 79.371094 8.582031 79.203125 8.363281 79.023438 8.167969 C 78.300781 7.382812 77.640625 6.347656 75.925781 6.367188 C 75.882812 6.5625 75.816406 6.753906 75.816406 6.941406 C 75.804688 8.921875 75.800781 10.902344 75.808594 12.882812 C 75.808594 13.492188 75.984375 14.039062 76.371094 14.519531 C 76.765625 15.011719 76.765625 15.128906 76.351562 15.632812 C 75.945312 16.125 75.71875 16.695312 75.691406 17.3125 C 75.609375 18.925781 75.5625 20.542969 75.785156 22.148438 C 75.9375 23.253906 76.3125 24.253906 77.195312 24.996094 C 77.585938 25.320312 77.515625 25.675781 77.054688 25.878906 C 76.527344 26.117188 75.972656 26.089844 75.425781 25.988281 C 74.789062 25.871094 74.195312 25.625 73.652344 25.199219 C 73.433594 25.328125 73.222656 25.445312 73.019531 25.570312 C 72.265625 26.023438 71.457031 26.183594 70.597656 26.058594 C 70.445312 26.039062 70.289062 25.996094 70.160156 25.921875 C 69.878906 25.753906 69.832031 25.425781 70.035156 25.167969 C 70.117188 25.066406 70.214844 24.96875 70.320312 24.886719 C 71.136719 24.238281 71.546875 23.339844 71.734375 22.335938 C 72.089844 20.441406 71.960938 19.3125 71.90625 16.828125 C 71.894531 16.292969 71.648438 15.882812 71.265625 15.535156 C 70.804688 15.113281 70.78125 14.945312 71.226562 14.5625 C 71.710938 14.140625 71.878906 13.628906 71.882812 13 C 71.894531 11.136719 71.933594 9.269531 71.949219 7.40625 C 71.953125 7.089844 71.914062 6.777344 71.886719 6.378906 " fill-opacity="1" fill-rule="nonzero"/></g><g clip-path="url(#id9)"><path fill="#7b7979" d="M 13.402344 15.570312 C 9.742188 15.570312 6.773438 12.65625 6.773438 9.0625 C 6.773438 5.46875 9.742188 2.554688 13.402344 2.554688 C 17.0625 2.554688 20.027344 5.46875 20.027344 9.0625 C 20.027344 12.65625 17.0625 15.570312 13.402344 15.570312 Z M 22.4375 9.0625 C 22.4375 4.050781 18.207031 0.0117188 13.0625 0.195312 C 8.40625 0.363281 4.59375 4.0625 4.375 8.636719 C 4.292969 10.367188 4.71875 11.992188 5.511719 13.390625 L 13.402344 29.023438 L 21.289062 13.390625 C 22.019531 12.109375 22.4375 10.632812 22.4375 9.0625 " fill-opacity="1" fill-rule="nonzero"/></g><path fill="#2c9d40" d="M 13.402344 15.570312 C 9.742188 15.570312 6.773438 12.65625 6.773438 9.0625 C 6.773438 5.46875 9.742188 2.554688 13.402344 2.554688 C 17.0625 2.554688 20.027344 5.46875 20.027344 9.0625 C 20.027344 12.65625 17.0625 15.570312 13.402344 15.570312 " fill-opacity="1" fill-rule="nonzero"/><path fill="#ed1e24" d="M 13.402344 2.554688 C 12.519531 2.554688 11.679688 2.722656 10.910156 3.03125 L 10.910156 15.09375 C 11.679688 15.398438 12.519531 15.570312 13.402344 15.570312 C 17.0625 15.570312 20.027344 12.65625 20.027344 9.0625 C 20.027344 5.46875 17.0625 2.554688 13.402344 2.554688 " fill-opacity="1" fill-rule="nonzero"/><path fill="#e3ea0f" d="M 10.910156 11.457031 C 9.5625 11.457031 8.46875 10.382812 8.46875 9.0625 C 8.46875 7.738281 9.5625 6.667969 10.910156 6.667969 C 12.257812 6.667969 13.347656 7.738281 13.347656 9.0625 C 13.347656 10.382812 12.257812 11.457031 10.910156 11.457031 Z M 10.910156 6.160156 C 9.277344 6.160156 7.957031 7.460938 7.957031 9.0625 C 7.957031 10.664062 9.277344 11.960938 10.910156 11.960938 C 12.539062 11.960938 13.863281 10.664062 13.863281 9.0625 C 13.863281 7.460938 12.539062 6.160156 10.910156 6.160156 " fill-opacity="1" fill-rule="nonzero"/><path fill="#e3ea0f" d="M 11.183594 11.949219 L 10.632812 11.949219 L 10.632812 6.160156 L 11.183594 6.160156 L 11.183594 11.949219 " fill-opacity="1" fill-rule="nonzero"/><path fill="#e3ea0f" d="M 8.144531 10.085938 L 7.996094 9.5625 L 13.675781 8.023438 L 13.824219 8.546875 L 8.144531 10.085938 " fill-opacity="1" fill-rule="nonzero"/><path fill="#e3ea0f" d="M 13.675781 10.085938 L 13.824219 9.5625 L 8.144531 8.023438 L 7.996094 8.546875 L 13.675781 10.085938 " fill-opacity="1" fill-rule="nonzero"/><path fill="#ed1e24" d="M 10.910156 7.296875 L 9.199219 7.296875 L 9.199219 9.664062 C 9.199219 9.664062 9.234375 11.140625 10.910156 11.140625 C 12.585938 11.140625 12.617188 9.664062 12.617188 9.664062 L 12.617188 7.296875 L 10.910156 7.296875 " fill-opacity="1" fill-rule="nonzero"/><path fill="#ffffff" d="M 10.910156 8.113281 L 9.929688 8.113281 L 9.929688 9.472656 C 9.929688 9.472656 9.945312 10.324219 10.910156 10.324219 C 11.875 10.324219 11.890625 9.472656 11.890625 9.472656 L 11.890625 8.113281 L 10.910156 8.113281 " fill-opacity="1" fill-rule="nonzero"/><path fill="#e3ea0f" d="M 11.175781 7.972656 L 10.644531 7.972656 L 10.644531 7.453125 L 11.175781 7.453125 L 11.175781 7.972656 " fill-opacity="1" fill-rule="nonzero"/><path fill="#e3ea0f" d="M 10.382812 10.453125 L 10.003906 10.824219 L 9.628906 10.453125 L 10.003906 10.085938 L 10.382812 10.453125 " fill-opacity="1" fill-rule="nonzero"/><path fill="#e3ea0f" d="M 12.191406 10.453125 L 11.8125 10.824219 L 11.4375 10.453125 L 11.8125 10.085938 L 12.191406 10.453125 " fill-opacity="1" fill-rule="nonzero"/><path fill="#e3ea0f" d="M 9.828125 7.972656 L 9.296875 7.972656 L 9.296875 7.453125 L 9.828125 7.453125 L 9.828125 7.972656 " fill-opacity="1" fill-rule="nonzero"/><path fill="#e3ea0f" d="M 12.523438 7.972656 L 11.992188 7.972656 L 11.992188 7.453125 L 12.523438 7.453125 L 12.523438 7.972656 " fill-opacity="1" fill-rule="nonzero"/><path fill="#e3ea0f" d="M 9.828125 9.480469 L 9.296875 9.480469 L 9.296875 8.957031 L 9.828125 8.957031 L 9.828125 9.480469 " fill-opacity="1" fill-rule="nonzero"/><path fill="#e3ea0f" d="M 12.523438 9.480469 L 11.992188 9.480469 L 11.992188 8.957031 L 12.523438 8.957031 L 12.523438 9.480469 " fill-opacity="1" fill-rule="nonzero"/><path fill="#4850ab" d="M 10.910156 8.925781 L 10.648438 8.925781 L 10.648438 9.285156 C 10.648438 9.285156 10.652344 9.511719 10.910156 9.511719 C 11.164062 9.511719 11.171875 9.285156 11.171875 9.285156 L 11.171875 8.925781 L 10.910156 8.925781 " fill-opacity="1" fill-rule="nonzero"/><path fill="#4850ab" d="M 10.910156 9.609375 L 10.648438 9.609375 L 10.648438 9.972656 C 10.648438 9.972656 10.652344 10.199219 10.910156 10.199219 C 11.164062 10.199219 11.171875 9.972656 11.171875 9.972656 L 11.171875 9.609375 L 10.910156 9.609375 " fill-opacity="1" fill-rule="nonzero"/><path fill="#4850ab" d="M 10.910156 8.246094 L 10.648438 8.246094 L 10.648438 8.609375 C 10.648438 8.609375 10.652344 8.832031 10.910156 8.832031 C 11.164062 8.832031 11.171875 8.609375 11.171875 8.609375 L 11.171875 8.246094 L 10.910156 8.246094 " fill-opacity="1" fill-rule="nonzero"/><path fill="#4850ab" d="M 10.289062 8.925781 L 10.027344 8.925781 L 10.027344 9.285156 C 10.027344 9.285156 10.03125 9.511719 10.289062 9.511719 C 10.546875 9.511719 10.550781 9.285156 10.550781 9.285156 L 10.550781 8.925781 L 10.289062 8.925781 " fill-opacity="1" fill-rule="nonzero"/><path fill="#4850ab" d="M 11.527344 8.925781 L 11.265625 8.925781 L 11.265625 9.285156 C 11.265625 9.285156 11.269531 9.511719 11.527344 9.511719 C 11.78125 9.511719 11.785156 9.285156 11.785156 9.285156 L 11.785156 8.925781 L 11.527344 8.925781 " fill-opacity="1" fill-rule="nonzero"/></svg>